<svg width="215" height="215" viewBox="0 0 215 215" fill="none" xmlns="http://www.w3.org/2000/svg">
<path fill-rule="evenodd" clip-rule="evenodd" d="M201.562 59.125C200.081 59.125 198.875 57.9194 198.875 56.4375C198.875 54.9555 200.081 53.75 201.562 53.75C203.044 53.75 204.25 54.9555 204.25 56.4375C204.25 57.9194 203.044 59.125 201.562 59.125Z" fill="#CACAFB"/>
<path fill-rule="evenodd" clip-rule="evenodd" d="M13.4375 161.25C11.9556 161.25 10.75 160.044 10.75 158.562C10.75 157.08 11.9556 155.875 13.4375 155.875C14.9194 155.875 16.125 157.08 16.125 158.562C16.125 160.044 14.9194 161.25 13.4375 161.25Z" fill="#CACAFB"/>
<path fill-rule="evenodd" clip-rule="evenodd" d="M196.188 172C194.706 172 193.5 170.794 193.5 169.312C193.5 167.83 194.706 166.625 196.188 166.625C197.669 166.625 198.875 167.83 198.875 169.312C198.875 170.794 197.669 172 196.188 172Z" fill="#CACAFB"/>
<path d="M88.6875 102.125H77.9375C76.4532 102.125 75.25 103.328 75.25 104.812V110.188C75.25 111.672 76.4532 112.875 77.9375 112.875H88.6875C90.1718 112.875 91.375 111.672 91.375 110.188V104.812C91.375 103.328 90.1718 102.125 88.6875 102.125Z" fill="#1D1D35"/>
<path d="M99.4375 102.125C100.816 102.125 101.952 103.162 102.107 104.499L102.125 104.812V107.5H110.188C111.566 107.5 112.702 108.537 112.857 109.874L112.875 110.188C112.875 111.566 111.838 112.702 110.501 112.857L110.188 112.875H99.4375C98.0593 112.875 96.9233 111.838 96.7681 110.501L96.75 110.188V104.812C96.75 103.328 97.9532 102.125 99.4375 102.125Z" fill="#1D1D35"/>
<path d="M110.188 75.25C111.672 75.25 112.875 76.4532 112.875 77.9375C112.875 79.3157 111.838 80.4517 110.501 80.6069L110.188 80.625H102.125V91.375H110.188C111.566 91.375 112.702 92.4125 112.857 93.7491L112.875 94.0625C112.875 95.4407 111.838 96.5767 110.501 96.7319L110.188 96.75H99.4375C98.0593 96.75 96.9233 95.7125 96.7681 94.3759L96.75 94.0625V77.9375C96.75 76.5593 97.7875 75.4233 99.1241 75.2681L99.4375 75.25H110.188Z" fill="#1D1D35"/>
<path d="M110.188 118.25C111.672 118.25 112.875 119.453 112.875 120.938C112.875 122.316 111.838 123.452 110.501 123.607L110.188 123.625H102.125V134.375H104.812V129C104.812 127.622 105.85 126.486 107.187 126.331L107.5 126.312H110.188C111.672 126.312 112.875 127.516 112.875 129C112.875 130.378 111.838 131.514 110.501 131.669L110.188 131.688V137.062C110.188 138.441 109.15 139.577 107.813 139.732L107.5 139.75H99.4375C98.0593 139.75 96.9233 138.713 96.7681 137.376L96.75 137.062V120.938C96.75 119.559 97.7875 118.423 99.1241 118.268L99.4375 118.25H110.188Z" fill="#1D1D35"/>
<path fill-rule="evenodd" clip-rule="evenodd" d="M157.75 75.25H159.393C167.84 75.25 174.688 82.0977 174.688 90.5448V95.9048C174.688 99.7597 176.319 103.435 179.178 106.02L179.378 106.201C181.579 108.192 181.75 111.591 179.758 113.793C178.739 114.92 177.291 115.562 175.772 115.562H141.372C138.404 115.562 135.997 113.156 135.997 110.188C135.997 108.665 136.643 107.214 137.774 106.194L138.442 105.57C140.993 103.03 142.438 99.5715 142.438 95.9532V90.5629C142.438 82.1058 149.293 75.25 157.75 75.25ZM159.393 80.625H157.75C152.262 80.625 147.812 85.0744 147.812 90.5629V95.9532C147.812 101.32 145.536 106.435 141.549 110.028L141.372 110.188H175.772L175.015 109.482C171.375 105.913 169.312 101.023 169.312 95.9048V90.5448C169.312 85.0663 164.871 80.625 159.393 80.625Z" fill="#1D1D35"/>
<path d="M158.562 123.625C163.63 123.625 166.625 120.63 166.625 115.562C166.625 114.078 165.422 112.875 163.938 112.875C162.453 112.875 161.25 114.078 161.25 115.562C161.25 117.662 160.662 118.25 158.562 118.25C156.463 118.25 155.875 117.662 155.875 115.562C155.875 114.078 154.672 112.875 153.188 112.875C151.703 112.875 150.5 114.078 150.5 115.562C150.5 120.63 153.495 123.625 158.562 123.625Z" fill="#1D1D35"/>
<path fill-rule="evenodd" clip-rule="evenodd" d="M56.4375 118.25H88.6875C90.1718 118.25 91.375 119.453 91.375 120.938V137.062C91.375 138.547 90.1718 139.75 88.6875 139.75H56.4375C54.9532 139.75 53.75 138.547 53.75 137.062V120.938C53.75 119.453 54.9532 118.25 56.4375 118.25ZM86 134.375V123.625H59.125V134.375H86Z" fill="#414159"/>
<path fill-rule="evenodd" clip-rule="evenodd" d="M56.4375 91.375H67.1875C68.6718 91.375 69.875 92.5782 69.875 94.0625V110.188C69.875 111.672 68.6718 112.875 67.1875 112.875H56.4375C54.9532 112.875 53.75 111.672 53.75 110.188V94.0625C53.75 92.5782 54.9532 91.375 56.4375 91.375ZM64.5 107.5V96.75H59.125V107.5H64.5Z" fill="#414159"/>
<path d="M61.8125 75.25H56.4375C54.9532 75.25 53.75 76.4532 53.75 77.9375V83.3125C53.75 84.7968 54.9532 86 56.4375 86H61.8125C63.2968 86 64.5 84.7968 64.5 83.3125V77.9375C64.5 76.4532 63.2968 75.25 61.8125 75.25Z" fill="#414159"/>
<path fill-rule="evenodd" clip-rule="evenodd" d="M88.6875 75.25H72.5625C71.0782 75.25 69.875 76.4532 69.875 77.9375V86C69.875 87.4843 71.0782 88.6875 72.5625 88.6875H77.9375V94.0625C77.9375 95.4407 78.975 96.5767 80.3116 96.7319L80.625 96.75H88.6875C90.1718 96.75 91.375 95.5468 91.375 94.0625V77.9375C91.375 76.4532 90.1718 75.25 88.6875 75.25ZM75.25 83.3125V80.625H86V91.375H83.3125V86C83.3125 84.6218 82.275 83.4858 80.9384 83.3306L80.625 83.3125H75.25Z" fill="#414159"/>
<path d="M94.0625 26.875C95.5468 26.875 96.75 28.0782 96.75 29.5625C96.75 31.0468 95.5468 32.25 94.0625 32.25H72.5625C71.0782 32.25 69.875 31.0468 69.875 29.5625C69.875 28.0782 71.0782 26.875 72.5625 26.875H94.0625Z" fill="#414159"/>
<path d="M158.562 59.125C165.794 59.125 172.754 61.0343 178.866 64.604C180.147 65.3526 180.58 66.9984 179.831 68.2801C179.082 69.5618 177.437 69.9939 176.155 69.2454C170.86 66.1529 164.835 64.5 158.562 64.5C139.267 64.5 123.625 80.1421 123.625 99.4375C123.625 107.417 126.305 114.98 131.153 121.104C132.326 122.586 132.085 123.99 131.14 125.875L130.783 126.552L130.478 127.086L129.928 127.975L129.462 128.688L127.726 131.268L128.855 130.924L132.463 129.767L134.088 129.265L135.007 128.999L135.811 128.787C137.814 128.294 138.74 128.367 139.782 128.924L140.181 129.155C145.658 132.55 151.972 134.375 158.562 134.375C177.858 134.375 193.5 118.733 193.5 99.4375C193.5 91.4561 190.819 83.8912 185.968 77.7659C185.047 76.6023 185.243 74.912 186.407 73.9906C187.57 73.0691 189.261 73.2654 190.182 74.4289C195.778 81.4957 198.875 90.2338 198.875 99.4375C198.875 121.701 180.826 139.75 158.562 139.75C151.364 139.75 144.439 137.858 138.355 134.327L137.753 133.966L137.644 133.979C137.505 133.996 137.342 134.022 137.157 134.058L136.305 134.251L135.309 134.521L133.172 135.184L130.676 135.988L128.886 136.547L127.863 136.849L126.962 137.093L126.17 137.279C123.944 137.752 123.013 137.448 121.819 136.366C120.211 134.907 120.425 133.356 121.448 131.3L121.781 130.663L122.057 130.174L122.548 129.371L123.197 128.375L125.148 125.466L125.68 124.633L126.071 123.966L126.275 123.582L125.644 122.713C121.077 116.267 118.482 108.602 118.265 100.539L118.25 99.4375C118.25 77.1735 136.299 59.125 158.562 59.125Z" fill="#414159"/>
<path d="M120.938 16.125C131.111 16.125 139.398 24.2004 139.739 34.2908L139.75 34.9375V51.0625C139.75 52.5468 138.547 53.75 137.062 53.75C135.684 53.75 134.548 52.7125 134.393 51.3759L134.375 51.0625V34.9375C134.375 27.7115 128.671 21.8176 121.52 21.5124L120.938 21.5H45.6875C38.4615 21.5 32.5676 27.2037 32.2624 34.3546L32.25 34.9375V180.062C32.25 187.289 37.9537 193.182 45.1046 193.488L45.6875 193.5H120.938C128.164 193.5 134.057 187.796 134.363 180.645L134.375 180.062V147.812C134.375 146.328 135.578 145.125 137.062 145.125C138.441 145.125 139.577 146.162 139.732 147.499L139.75 147.812V180.062C139.75 190.236 131.675 198.523 121.584 198.864L120.938 198.875H45.6875C35.5141 198.875 27.2268 190.8 26.8859 180.709L26.875 180.062V34.9375C26.875 24.7641 34.9504 16.4768 45.0408 16.1359L45.6875 16.125H120.938Z" fill="#414159"/>
<path d="M110.188 177.375C111.672 177.375 112.875 178.578 112.875 180.062C112.875 181.441 111.838 182.577 110.501 182.732L110.188 182.75H56.4375C54.9532 182.75 53.75 181.547 53.75 180.062C53.75 178.684 54.7875 177.548 56.1241 177.393L56.4375 177.375H110.188Z" fill="#414159"/>
</svg>
