<svg width="35" height="34" viewBox="0 0 35 34" fill="none" xmlns="http://www.w3.org/2000/svg">
<g clip-path="url(#clip0_19_237)">
<path d="M17.5 0C7.8351 0 0 7.61124 0 17C0 24.9723 5.6504 31.6622 13.2727 33.4995V22.1952H9.6642V17H13.2727V14.7614C13.2727 8.97532 15.9684 6.2934 21.8162 6.2934C22.925 6.2934 24.8381 6.50488 25.6207 6.71568V11.4247C25.2077 11.3825 24.4902 11.3614 23.5991 11.3614C20.7298 11.3614 19.621 12.4175 19.621 15.1626V17H25.3372L24.3551 22.1952H19.621V33.8756C28.2863 32.859 35.0007 25.6918 35.0007 17C35 7.61124 27.1649 0 17.5 0Z" fill="white"/>
</g>
<defs>
<clipPath id="clip0_19_237">
<rect width="35" height="34" fill="white"/>
</clipPath>
</defs>
</svg>
