<svg width="215" height="215" viewBox="0 0 215 215" fill="none" xmlns="http://www.w3.org/2000/svg">
<path fill-rule="evenodd" clip-rule="evenodd" d="M182.75 34.9375C181.268 34.9375 180.062 33.7319 180.062 32.25C180.062 30.768 181.268 29.5625 182.75 29.5625C184.232 29.5625 185.438 30.768 185.438 32.25C185.438 33.7319 184.232 34.9375 182.75 34.9375ZM110.188 204.25C108.706 204.25 107.5 203.044 107.5 201.562C107.5 200.08 108.706 198.875 110.188 198.875C111.669 198.875 112.875 200.08 112.875 201.562C112.875 203.044 111.669 204.25 110.188 204.25ZM40.3125 26.875C38.8306 26.875 37.625 25.6694 37.625 24.1875C37.625 22.7055 38.8306 21.5 40.3125 21.5C41.7944 21.5 43 22.7055 43 24.1875C43 25.6694 41.7944 26.875 40.3125 26.875Z" fill="#CACAFB"/>
<path fill-rule="evenodd" clip-rule="evenodd" d="M155.821 72.0261C156.096 73.3766 155.306 74.6968 154.027 75.1157L153.724 75.196C149.212 76.1151 147.128 81.0867 147.973 90.6484L147.812 90.6499C149.489 90.6499 151.006 90.4986 153.981 90.0475L158.336 89.367L160.134 89.1147C166.797 88.2529 170.915 88.6271 174.455 91.1484C184.571 98.3539 188.125 106.323 188.125 120.498C188.125 140.731 173.447 157.826 153.836 160.798C152.369 161.02 150.999 160.011 150.776 158.543C150.554 157.076 151.563 155.706 153.031 155.483C170.012 152.91 182.75 138.075 182.75 120.498C182.75 107.963 179.935 101.651 171.337 95.5263C169.223 94.0209 166.133 93.7593 160.74 94.4571L158.793 94.7342L154.019 95.4767C151.686 95.8191 150.197 95.9736 148.676 96.0138C148.965 97.7424 149.327 99.5839 149.764 101.54C149.813 101.763 149.834 101.986 149.828 102.205C151.618 101.533 152.75 100.315 153.325 98.5877C153.795 97.1796 155.317 96.4186 156.725 96.8879C158.133 97.3573 158.894 98.8793 158.425 100.287C156.114 107.22 149.352 109.474 139.223 107.448C137.767 107.157 136.824 105.741 137.115 104.285C137.406 102.83 138.822 101.886 140.277 102.177C141.848 102.491 143.265 102.688 144.535 102.771L144.518 102.71C143.966 100.24 143.523 97.9002 143.191 95.6935C142.7 95.6315 142.164 95.556 141.575 95.4685L137.72 94.8608C130.299 93.6742 126.776 93.7389 124.298 95.5198C115.735 101.673 112.875 108.065 112.875 120.498C112.875 121.982 111.672 123.185 110.188 123.185C108.703 123.185 107.5 121.982 107.5 120.498C107.5 106.428 111.099 98.3861 121.161 91.155C125.102 88.323 129.389 88.1457 137.636 89.4072L141.623 90.0394C141.959 90.0909 142.276 90.1386 142.577 90.1826C141.757 78.4326 144.946 71.4986 152.651 69.9291C154.105 69.6329 155.525 70.5717 155.821 72.0261ZM110.188 129C111.672 129 112.875 130.203 112.875 131.688V137.063C112.875 138.547 111.672 139.75 110.188 139.75C108.703 139.75 107.5 138.547 107.5 137.063V131.688C107.5 130.203 108.703 129 110.188 129Z" fill="#414159"/>
<path fill-rule="evenodd" clip-rule="evenodd" d="M67.7179 128.109C68.016 129.563 67.079 130.983 65.625 131.281C64.171 131.58 62.7506 130.643 62.4524 129.189C61.3091 123.613 59.1954 122.212 54.858 123.791C52.3376 124.708 51.0053 126.501 51.0618 128.938C51.0806 129.749 50.7383 130.484 50.1818 130.99C50.1594 131.06 50.1298 131.136 50.0965 131.21C49.4919 132.566 47.903 133.175 46.5474 132.57C37.8342 128.684 34.0513 129.809 33.0087 135.722C31.966 141.635 35.1359 143.986 44.6528 143.315C44.922 143.296 45.1847 143.317 45.4351 143.374C45.5944 143.395 45.7551 143.432 45.9145 143.485C47.3228 143.954 48.0844 145.476 47.6156 146.884C45.8177 152.285 46.9482 154.554 51.4938 155.356C55.0301 155.979 57.3494 153.749 58.4494 147.615L58.482 147.095C58.5622 146.03 58.6994 144.914 58.8888 143.744L58.9757 143.298L59.0079 143.039L59.0258 142.959L59.0285 142.94L59.05 142.851L59.0814 142.729C59.171 142.429 59.3097 142.155 59.487 141.914C59.5181 141.872 59.5501 141.831 59.5832 141.791C59.7408 141.6 59.9243 141.432 60.1269 141.292C60.1805 141.255 60.2374 141.218 60.2956 141.184C60.3241 141.168 60.3505 141.153 60.3771 141.138L60.4948 141.078C60.5476 141.053 60.6005 141.03 60.6543 141.008C60.7212 140.981 60.7884 140.957 60.8566 140.936C60.8749 140.93 60.8941 140.924 60.9133 140.919L61.0909 140.874C61.1361 140.865 61.1823 140.856 61.2287 140.848C61.2497 140.845 61.2701 140.842 61.2906 140.839C61.4737 140.814 61.6622 140.808 61.853 140.822L61.912 140.827L62.0169 140.839L62.1003 140.852L62.1285 140.857C62.3044 140.888 62.4739 140.936 62.6354 140.999C62.6712 141.013 62.7065 141.028 62.7415 141.044C63.0153 141.164 63.2627 141.328 63.4765 141.526L63.6162 141.665C63.6391 141.689 63.6606 141.713 63.6816 141.737C63.7173 141.778 63.7527 141.821 63.7868 141.866C63.8148 141.902 63.8408 141.938 63.8659 141.974C63.8889 142.007 63.9122 142.042 63.9346 142.078C63.9655 142.128 63.9941 142.177 64.021 142.227C64.0259 142.236 64.0317 142.246 64.0373 142.257C64.0751 142.33 64.1093 142.403 64.1402 142.478L64.1527 142.508C64.2079 142.646 64.2519 142.79 64.2836 142.938C64.3348 143.176 64.3541 143.424 64.3375 143.676C64.3366 143.686 64.3359 143.696 64.335 143.707C64.2135 145.298 64.0291 146.787 63.7817 148.172C63.4499 154.208 65.7272 157.057 72.8426 159.136C74.0845 159.499 75.7864 159.824 77.8298 160.103L80.182 146.769C80.4398 145.308 81.8337 144.332 83.2954 144.589C84.7571 144.847 85.7331 146.241 85.4754 147.703L83.1854 160.67C91.0469 161.311 101.359 161.453 110.447 160.886L111.942 152.369C112.2 150.908 113.594 149.932 115.055 150.189C116.517 150.447 117.493 151.841 117.235 153.303L115.971 160.468L116.353 160.438C122.023 159.965 126.358 159.493 130.023 158.907L130.798 158.78C133.546 158.316 135.691 157.805 137.147 157.261L137.639 157.064L137.889 156.95L137.587 156.654L137.28 156.38C136.086 155.352 134.232 154.115 131.821 152.731C127.585 150.299 121.839 147.527 115.382 144.713C111.673 143.097 107.543 141.503 103.214 139.989L101.355 150.503C101.098 151.964 99.7038 152.94 98.2421 152.683C96.7804 152.425 95.8043 151.031 96.0621 149.569L97.9288 138.983C97.9725 138.735 98.049 138.5 98.153 138.284C95.4992 137.423 92.7998 136.597 90.1078 135.821L87.8353 135.177C84.8577 134.35 82.1134 133.652 79.8917 133.151C78.4438 132.825 77.5346 131.386 77.861 129.938C78.1873 128.491 79.6257 127.581 81.0736 127.908L82.8981 128.334C85.4481 128.95 88.4434 129.747 91.597 130.656C100.727 133.289 109.942 136.48 117.529 139.786L120.589 141.133C136.428 148.185 144.55 153.159 143.702 157.97C142.833 162.896 135.262 164.342 115.168 165.929L112.926 166.103C112.894 166.106 112.872 166.107 112.851 166.108L112.926 166.103C102.156 166.923 89.3434 166.724 80.2488 165.791C80.0264 165.813 79.795 165.804 79.562 165.763C79.4498 165.743 79.3404 165.716 79.2342 165.684C75.9557 165.315 73.2242 164.848 71.3346 164.295C65.7731 162.67 62.251 160.354 60.3098 157.13C58.0057 160.135 54.7565 161.389 50.5604 160.649C43.7836 159.454 40.711 155.156 41.6408 148.775C31.2936 148.614 26.1233 143.818 27.7153 134.789C29.3254 125.658 35.954 122.961 45.9173 126.525C46.6696 122.909 49.2507 120.112 53.0197 118.74C60.6337 115.969 65.9508 119.491 67.7179 128.109ZM99.4375 53.75C100.922 53.75 102.125 54.9532 102.125 56.4375L102.123 71.7482L112.422 87.1939C112.449 87.2347 112.461 87.2536 112.473 87.2726L112.49 87.3004C112.537 87.3819 112.56 87.4245 112.582 87.4674C112.592 87.4851 112.601 87.5032 112.61 87.5214L112.593 87.4916L112.622 87.5473C112.631 87.5678 112.641 87.5884 112.65 87.6091C112.713 87.7539 112.763 87.9016 112.799 88.0512L112.815 88.1195L112.829 88.1878C112.838 88.236 112.846 88.2838 112.852 88.3317L112.857 88.3741L112.867 88.4795C112.871 88.5289 112.874 88.5783 112.875 88.6276L112.875 94.0625C112.875 95.5468 111.672 96.75 110.188 96.75C108.703 96.75 107.5 95.5468 107.5 94.0625L107.498 91.375H91.3726L91.375 120.938C91.375 122.422 90.1718 123.625 88.6875 123.625C87.2032 123.625 86 122.422 86 120.938L85.9976 91.375H48.375L48.3726 102.125H67.1875C68.6718 102.125 69.875 103.328 69.875 104.812C69.875 106.297 68.6718 107.5 67.1875 107.5H48.375V115.562C48.375 116.941 47.3375 118.077 46.0009 118.232L45.6875 118.25C44.2032 118.25 43 117.047 43 115.562V88.6875L43.0181 88.3741L43.0231 88.3317L43.0336 88.2599L43.0461 88.1883C43.055 88.1421 43.0647 88.0969 43.0756 88.0521C43.1121 87.9016 43.1618 87.7539 43.2251 87.6098C43.2433 87.5676 43.2625 87.5267 43.2827 87.4863C43.2995 87.4534 43.3167 87.4209 43.3346 87.3886L43.4383 87.216L53.7476 71.7482L53.75 56.4375C53.75 54.9532 54.9532 53.75 56.4375 53.75H99.4375ZM99.4351 77.4054L93.7053 86H105.165L99.4351 77.4054ZM94.4121 75.25H57.8729L50.7053 86H87.2446L94.4121 75.25ZM96.75 59.125H59.125L59.1226 69.875H96.7476L96.75 59.125Z" fill="#0F101D"/>
</svg>
