<svg width="34" height="34" viewBox="0 0 34 34" fill="none" xmlns="http://www.w3.org/2000/svg">
<g clip-path="url(#clip0_19_245)">
<path d="M33.6735 13.8461H17.3621V20.3821H26.7347C26.5841 21.3071 26.2457 22.217 25.7503 23.0467C25.1827 23.9974 24.4809 24.7211 23.7617 25.2723C21.6071 26.9232 19.0952 27.2608 17.3508 27.2608C12.9439 27.2608 9.17863 24.4126 7.72099 20.5425C7.66217 20.402 7.62311 20.257 7.57555 20.1136C7.25344 19.1286 7.07745 18.0854 7.07745 17.0011C7.07745 15.8726 7.26803 14.7925 7.61552 13.7723C8.98619 9.74867 12.8364 6.74342 17.3539 6.74342C18.2626 6.74342 19.1376 6.85158 19.9674 7.06731C21.8638 7.56033 23.2052 8.53134 24.0272 9.2994L28.9868 4.44232C25.9699 1.67615 22.037 4.18225e-09 17.3457 4.18225e-09C13.5953 -8.07206e-05 10.1327 1.16844 7.29527 3.14328C4.99419 4.74482 3.10698 6.88908 1.83334 9.3794C0.648679 11.6884 0 14.2473 0 16.9985C0 19.7499 0.64967 22.3353 1.83434 24.623V24.6384C3.08564 27.0671 4.91547 29.1583 7.13944 30.7525C9.08231 32.1452 12.5661 34 17.3457 34C20.0943 34 22.5303 33.5044 24.6787 32.5757C26.2285 31.9058 27.6017 31.032 28.8449 29.9089C30.4876 28.425 31.7741 26.5896 32.6522 24.4778C33.5303 22.3661 34 19.9781 34 17.3891C34 16.1834 33.8789 14.9589 33.6735 13.846V13.8461Z" fill="white"/>
</g>
<defs>
<clipPath id="clip0_19_245">
<rect width="34" height="34" fill="white"/>
</clipPath>
</defs>
</svg>
