<svg width="215" height="215" viewBox="0 0 215 215" fill="none" xmlns="http://www.w3.org/2000/svg">
<path fill-rule="evenodd" clip-rule="evenodd" d="M180.062 43C178.581 43 177.375 41.7944 177.375 40.3125C177.375 38.8305 178.581 37.625 180.062 37.625C181.544 37.625 182.75 38.8305 182.75 40.3125C182.75 41.7944 181.544 43 180.062 43Z" fill="#CACAFB"/>
<path fill-rule="evenodd" clip-rule="evenodd" d="M51.0625 193.5C49.5806 193.5 48.375 192.294 48.375 190.812C48.375 189.33 49.5806 188.125 51.0625 188.125C52.5444 188.125 53.75 189.33 53.75 190.812C53.75 192.294 52.5444 193.5 51.0625 193.5Z" fill="#CACAFB"/>
<path fill-rule="evenodd" clip-rule="evenodd" d="M83.3125 26.875C81.8306 26.875 80.625 25.6694 80.625 24.1875C80.625 22.7055 81.8306 21.5 83.3125 21.5C84.7944 21.5 86 22.7055 86 24.1875C86 25.6694 84.7944 26.875 83.3125 26.875Z" fill="#CACAFB"/>
<path fill-rule="evenodd" clip-rule="evenodd" d="M185.438 161.25C183.956 161.25 182.75 160.044 182.75 158.562C182.75 157.08 183.956 155.875 185.438 155.875C186.919 155.875 188.125 157.08 188.125 158.562C188.125 160.044 186.919 161.25 185.438 161.25Z" fill="#CACAFB"/>
<path fill-rule="evenodd" clip-rule="evenodd" d="M120.938 188.125C119.456 188.125 118.25 186.919 118.25 185.438C118.25 183.955 119.456 182.75 120.938 182.75C122.419 182.75 123.625 183.955 123.625 185.438C123.625 186.919 122.419 188.125 120.938 188.125Z" fill="#CACAFB"/>
<path fill-rule="evenodd" clip-rule="evenodd" d="M24.1875 86C22.7056 86 21.5 84.7944 21.5 83.3125C21.5 81.8305 22.7056 80.625 24.1875 80.625C25.6694 80.625 26.875 81.8305 26.875 83.3125C26.875 84.7944 25.6694 86 24.1875 86Z" fill="#CACAFB"/>
<path d="M110.188 80.625C108.703 80.625 107.5 81.8282 107.5 83.3125C107.5 84.7968 108.703 86 110.188 86C111.672 86 112.875 84.7968 112.875 83.3125C112.875 81.8282 111.672 80.625 110.188 80.625Z" fill="#D5D5DD"/>
<path d="M158.562 102.125C157.078 102.125 155.875 103.328 155.875 104.812C155.875 106.297 157.078 107.5 158.562 107.5C160.047 107.5 161.25 106.297 161.25 104.812C161.25 103.328 160.047 102.125 158.562 102.125Z" fill="#D5D5DD"/>
<path d="M147.812 102.125C149.297 102.125 150.5 103.328 150.5 104.812C150.5 106.191 149.463 107.327 148.126 107.482L147.812 107.5H142.438C140.953 107.5 139.75 106.297 139.75 104.812C139.75 103.434 140.787 102.298 142.124 102.143L142.438 102.125H147.812Z" fill="#D5D5DD"/>
<path d="M129 83.3125C129 81.8282 127.797 80.625 126.312 80.625H120.938L120.624 80.6431C119.287 80.7983 118.25 81.9343 118.25 83.3125C118.25 84.7968 119.453 86 120.938 86H126.312L126.626 85.9819C127.963 85.8267 129 84.6907 129 83.3125Z" fill="#D5D5DD"/>
<path d="M102.762 73.1529C106.423 69.3294 102.542 63.0161 97.4916 64.8021C77.7762 71.7744 64.5055 90.5186 64.5055 111.628C64.5055 139.038 86.6155 161.256 113.889 161.256C135.49 161.256 154.543 147.155 160.999 126.552C162.587 121.485 156.353 117.588 152.615 121.446C147.59 126.63 141.14 130.097 134.09 131.4C132.63 131.67 131.666 133.072 131.936 134.532C132.206 135.991 133.608 136.956 135.067 136.686L136.126 136.475C143.16 134.976 149.636 131.604 154.924 126.702L155.453 126.197L155.268 126.732C148.998 144.123 132.502 155.881 113.889 155.881C89.59 155.881 69.8805 136.075 69.8805 111.628L69.8907 110.672C70.2698 92.8698 81.2168 77.1013 97.517 70.5373L98.0534 70.3265L97.4443 71.0166C91.1894 78.2797 87.7337 87.5177 87.7337 97.2217C87.7337 118.221 103.884 135.635 124.658 137.234C126.138 137.348 127.43 136.241 127.544 134.761C127.657 133.281 126.55 131.989 125.07 131.875C107.095 130.491 93.1087 115.41 93.1087 97.2217C93.1087 88.1869 96.5586 79.6325 102.762 73.1529Z" fill="#1D1D35"/>
<path d="M40.3125 155.875C38.8282 155.875 37.625 157.078 37.625 158.563C37.625 160.047 38.8282 161.25 40.3125 161.25C41.7968 161.25 43 160.047 43 158.563C43 157.078 41.7968 155.875 40.3125 155.875Z" fill="#1D1D35"/>
<path d="M153.188 69.875C154.672 69.875 155.875 71.0783 155.875 72.5625C155.875 73.9408 154.838 75.0767 153.501 75.2319L153.188 75.25H147.812C146.328 75.25 145.125 74.0468 145.125 72.5625C145.125 71.1843 146.162 70.0483 147.499 69.8931L147.812 69.875H153.188Z" fill="#1D1D35"/>
<path d="M64.5 158.563C64.5 157.078 63.2968 155.875 61.8125 155.875H51.0625L50.7491 155.893C49.4125 156.048 48.375 157.184 48.375 158.563C48.375 160.047 49.5782 161.25 51.0625 161.25H61.8125L62.1259 161.232C63.4625 161.077 64.5 159.941 64.5 158.563Z" fill="#1D1D35"/>
</svg>
