<svg width="215" height="215" viewBox="0 0 215 215" fill="none" xmlns="http://www.w3.org/2000/svg">
<path fill-rule="evenodd" clip-rule="evenodd" d="M51.0625 193.5C49.5806 193.5 48.375 192.294 48.375 190.812C48.375 189.33 49.5806 188.125 51.0625 188.125C52.5444 188.125 53.75 189.33 53.75 190.812C53.75 192.294 52.5444 193.5 51.0625 193.5Z" fill="#CACAFB"/>
<path fill-rule="evenodd" clip-rule="evenodd" d="M83.3125 26.875C81.8306 26.875 80.625 25.6694 80.625 24.1875C80.625 22.7055 81.8306 21.5 83.3125 21.5C84.7944 21.5 86 22.7055 86 24.1875C86 25.6694 84.7944 26.875 83.3125 26.875Z" fill="#CACAFB"/>
<path fill-rule="evenodd" clip-rule="evenodd" d="M180.062 177.375C178.581 177.375 177.375 176.169 177.375 174.688C177.375 173.205 178.581 172 180.062 172C181.544 172 182.75 173.205 182.75 174.688C182.75 176.169 181.544 177.375 180.062 177.375Z" fill="#CACAFB"/>
<path fill-rule="evenodd" clip-rule="evenodd" d="M180.062 43C178.581 43 177.375 41.7944 177.375 40.3125C177.375 38.8305 178.581 37.625 180.062 37.625C181.544 37.625 182.75 38.8305 182.75 40.3125C182.75 41.7944 181.544 43 180.062 43Z" fill="#CACAFB"/>
<path fill-rule="evenodd" clip-rule="evenodd" d="M24.1875 86C22.7056 86 21.5 84.7944 21.5 83.3125C21.5 81.8305 22.7056 80.625 24.1875 80.625C25.6694 80.625 26.875 81.8305 26.875 83.3125C26.875 84.7944 25.6694 86 24.1875 86Z" fill="#CACAFB"/>
<path fill-rule="evenodd" clip-rule="evenodd" d="M87.1967 118.701C88.4317 117.878 90.1003 118.212 90.9236 119.447C94.9107 125.427 103.485 129 110.187 129C111.672 129 112.875 130.203 112.875 131.688C112.875 133.172 111.672 134.375 110.187 134.375C101.84 134.375 91.5605 130.092 86.4514 122.428C85.628 121.193 85.9618 119.525 87.1967 118.701Z" fill="#D5D5DD"/>
<path d="M110.169 38.5374C110.014 37.2008 108.878 36.1633 107.5 36.1633C106.016 36.1633 104.812 37.3666 104.812 38.8508V53.5614L104.831 53.8748C104.986 55.2114 106.122 56.2489 107.5 56.2489C108.984 56.2489 110.188 55.0456 110.188 53.5614V38.8508L110.169 38.5374Z" fill="#1D1D35"/>
<path d="M52.0819 104.812C53.5662 104.812 54.7694 106.016 54.7694 107.5C54.7694 108.878 53.7319 110.014 52.3953 110.169L52.0819 110.187H37.625C36.1407 110.187 34.9375 108.984 34.9375 107.5C34.9375 106.122 35.975 104.986 37.3116 104.831L37.625 104.812H52.0819Z" fill="#1D1D35"/>
<path d="M177.375 104.812C178.859 104.812 180.062 106.016 180.062 107.5C180.062 108.878 179.025 110.014 177.688 110.169L177.375 110.187H162.918C161.434 110.187 160.231 108.984 160.231 107.5C160.231 106.122 161.268 104.986 162.605 104.831L162.918 104.812H177.375Z" fill="#1D1D35"/>
<path d="M107.5 158.751C108.878 158.751 110.014 159.789 110.169 161.125L110.188 161.439V176.149C110.188 177.633 108.984 178.837 107.5 178.837C106.122 178.837 104.986 177.799 104.831 176.462L104.812 176.149V161.439C104.812 159.954 106.016 158.751 107.5 158.751Z" fill="#1D1D35"/>
<path d="M68.4225 144.811C67.3639 143.771 65.6624 143.786 64.622 144.844L59.803 149.748L59.5817 150.003C58.7711 151.064 58.8589 152.588 59.8361 153.548C60.8947 154.589 62.5963 154.574 63.6366 153.515L68.4556 148.612L68.677 148.357C69.4875 147.295 69.3997 145.772 68.4225 144.811Z" fill="#1D1D35"/>
<path d="M151.363 56.5811C152.404 55.5225 154.105 55.5077 155.164 56.5481C156.141 57.5084 156.229 59.0321 155.418 60.0935L155.197 60.3486L150.378 65.2521C149.338 66.3107 147.636 66.3255 146.577 65.2852C145.6 64.3248 145.512 62.8011 146.323 61.7397L146.544 61.4846L151.363 56.5811Z" fill="#1D1D35"/>
<path d="M63.3854 56.3553C62.3383 55.5265 60.8133 55.5877 59.8361 56.5481C58.7775 57.5884 58.7627 59.29 59.803 60.3486L64.622 65.2521L64.8732 65.4779C65.9203 66.3068 67.4454 66.2455 68.4225 65.2852C69.4812 64.2448 69.496 62.5432 68.4556 61.4846L63.6366 56.5811L63.3854 56.3553Z" fill="#1D1D35"/>
<path d="M146.577 144.811C147.555 143.851 149.08 143.79 150.127 144.618L150.378 144.844L155.197 149.748C156.237 150.806 156.223 152.508 155.164 153.548C154.187 154.509 152.662 154.57 151.615 153.741L151.363 153.515L146.544 148.612C145.504 147.553 145.519 145.852 146.577 144.811Z" fill="#1D1D35"/>
<path d="M145.125 107.5C145.125 86.7202 128.28 69.8749 107.5 69.8749C86.7203 69.8749 69.875 86.7202 69.875 107.5C69.875 112.647 70.9107 117.654 72.8936 122.289C73.4774 123.653 75.057 124.286 76.4216 123.702C77.7862 123.119 78.4191 121.539 77.8352 120.174C76.137 116.205 75.25 111.917 75.25 107.5C75.25 89.6888 89.6888 75.2499 107.5 75.2499C125.311 75.2499 139.75 89.6888 139.75 107.5C139.75 125.311 125.311 139.75 107.5 139.75C97.9607 139.75 89.1034 135.588 83.0112 128.486C82.0448 127.359 80.3481 127.229 79.2215 128.196C78.095 129.162 77.9651 130.859 78.9315 131.985C86.0344 140.265 96.3755 145.125 107.5 145.125C128.28 145.125 145.125 128.28 145.125 107.5Z" fill="#1D1D35"/>
</svg>
