<svg width="34" height="34" viewBox="0 0 34 34" fill="none" xmlns="http://www.w3.org/2000/svg">
<path d="M0 34L2.38991 25.2691C0.915165 22.7134 0.14025 19.8163 0.141666 16.8456C0.145916 7.55792 7.70382 0 16.99 0C21.4965 0.00141667 25.7266 1.75667 28.9084 4.94133C32.0888 8.126 33.8398 12.359 33.8384 16.8612C33.8342 26.1502 26.2763 33.7082 16.99 33.7082C14.1709 33.7067 11.3928 32.9998 8.93206 31.6568L0 34ZM9.34573 28.6068C11.7201 30.0163 13.9867 30.8607 16.9844 30.8621C24.7024 30.8621 30.9895 24.5806 30.9938 16.8583C30.9966 9.1205 24.7392 2.8475 16.9957 2.84467C9.27206 2.84467 2.98916 9.12617 2.98633 16.847C2.98491 19.9991 3.90857 22.3592 5.45982 24.8285L4.04457 29.9965L9.34573 28.6068ZM25.4773 20.8661C25.3724 20.6904 25.0919 20.5856 24.6698 20.3745C24.249 20.1634 22.1793 19.1448 21.7925 19.0046C21.4072 18.8643 21.1267 18.7935 20.8448 19.2157C20.5643 19.6364 19.7568 20.5856 19.5117 20.8661C19.2666 21.1466 19.0201 21.182 18.5994 20.9709C18.1786 20.7598 16.8215 20.3164 15.2135 18.8813C13.9626 17.765 13.1169 16.3866 12.8718 15.9644C12.6267 15.5437 12.8463 15.3156 13.056 15.1059C13.2458 14.9175 13.4767 14.6143 13.6878 14.3678C13.9017 14.1242 13.9711 13.9485 14.1128 13.6666C14.2531 13.3861 14.1836 13.1396 14.0774 12.9285C13.9711 12.7188 13.1296 10.6462 12.7797 9.80333C12.4369 8.98308 12.0898 9.09358 11.832 9.08083L11.0245 9.06667C10.744 9.06667 10.2878 9.1715 9.90248 9.59367C9.51715 10.0158 8.42915 11.033 8.42915 13.1056C8.42915 15.1782 9.93789 17.1799 10.1476 17.4604C10.3586 17.7409 13.1155 21.9937 17.3385 23.817C18.343 24.2505 19.1278 24.5097 19.7384 24.7038C20.747 25.024 21.665 24.9787 22.3904 24.871C23.1993 24.7506 24.8809 23.8524 25.2322 22.8692C25.5835 21.8847 25.5835 21.0417 25.4773 20.8661Z" fill="white"/>
</svg>
